# xmcd
#
# Track frame offsets: 
#        150
#        14440
#        26334
#        37071
#        49780
#        65347
#        80281
#        89935
#        105688
#        123576
#
# Disc length: 1808 seconds
#
# Revision: 0
# Processed by: cddbd v1.5.2PL0 Copyright (c) Steve Scherf et al.
# Submitted via: ExactAudioCopy v1.0b3
#
DISCID=83070e0a
DTITLE=Chucky Waggs - Company of Raggs
DYEAR=1900
DGENRE=Bluegrass
TTITLE0=The Entertainment
TTITLE1=No One's Fault but mine
TTITLE2=The Bottum
TTITLE3=Pure Good Luck
TTITLE4=Quality
TTITLE5=Dancin Shoes
TTITLE6=Madam Rose's
TTITLE7=Pretty Bones
TTITLE8=Devils Daughter
TTITLE9=Ball and Chain
EXTD=
EXTT0=
EXTT1=
EXTT2=
EXTT3=
EXTT4=
EXTT5=
EXTT6=
EXTT7=
EXTT8=
EXTT9=
PLAYORDER=
